<svg width="250" height="244" fill="none" xmlns="http://www.w3.org/2000/svg"><g clip-path="url(#a)"><mask id="b" style="mask-type:luminance" maskUnits="userSpaceOnUse" x="0" y="0" width="250" height="244"><path d="M250 0H0v244h250V0z" fill="#fff"/></mask><g mask="url(#b)"><path d="M158.71 54.875H91.346a5.799 5.799 0 0 0-5.79 5.79v149.698l-.772.235-16.526 5.061a3.091 3.091 0 0 1-3.856-2.05L15.246 53.065a3.089 3.089 0 0 1 2.05-3.856l25.466-7.797 73.826-22.594 25.466-7.797a3.08 3.08 0 0 1 3.285.985c.259.313.453.673.571 1.06l12.565 41.037.235.772z" fill="#F5F7F9"/><path d="M173.41 54.102 158.266 4.644a6.564 6.564 0 0 0-5.647-4.612 6.563 6.563 0 0 0-2.548.258l-35.803 10.958-73.822 22.599L4.642 44.808a6.568 6.568 0 0 0-4.354 8.194L52.045 222.03a6.57 6.57 0 0 0 8.195 4.354l24.544-7.511.772-.24v-.806l-.772.235-24.77 7.584a5.795 5.795 0 0 1-7.231-3.84L1.029 52.774a5.78 5.78 0 0 1 3.841-7.229l35.803-10.961 73.823-22.595 35.803-10.962a5.85 5.85 0 0 1 1.702-.254 5.799 5.799 0 0 1 5.528 4.095l15.074 49.234.24.772h.802l-.235-.772z" fill="#C6CFDC"/><path d="M47.357 49.335a3.482 3.482 0 0 1-3.324-2.458L39.061 30.64a3.472 3.472 0 0 1 2.305-4.338l67.916-20.79a3.477 3.477 0 0 1 4.339 2.304l4.972 16.239a3.48 3.48 0 0 1-2.305 4.338l-67.916 20.79a3.47 3.47 0 0 1-1.015.153z" fill="#007FFF"/><path d="M73.403 17.35a7.72 7.72 0 1 0 0-15.438 7.72 7.72 0 1 0 0 15.439z" fill="#007FFF"/><path d="M73.403 14.52a4.888 4.888 0 1 0 0-9.777 4.888 4.888 0 0 0 0 9.777z" fill="#fff"/><path d="M232.629 224.701H102.154a3.286 3.286 0 0 1-3.28-3.281V65.103a3.284 3.284 0 0 1 3.28-3.281h130.475a3.286 3.286 0 0 1 3.281 3.28V221.42a3.285 3.285 0 0 1-3.281 3.281z" fill="#C6CFDC" fill-opacity=".5"/><path d="M172.603 54.102H91.346a6.572 6.572 0 0 0-6.562 6.562v157.399l.772-.236V60.664a5.795 5.795 0 0 1 5.79-5.79h81.496l-.239-.772zm70.835 0H91.346a6.572 6.572 0 0 0-6.562 6.562v176.774A6.57 6.57 0 0 0 91.346 244h152.092a6.573 6.573 0 0 0 6.562-6.562V60.664a6.57 6.57 0 0 0-6.562-6.561zm5.79 183.336a5.794 5.794 0 0 1-5.79 5.79H91.346a5.8 5.8 0 0 1-5.79-5.79V60.664a5.795 5.795 0 0 1 5.79-5.79h152.092a5.796 5.796 0 0 1 5.79 5.79v176.774z" fill="#C6CFDC"/><path d="M202.906 71.085h-71.028a3.477 3.477 0 0 1-3.474-3.473V50.629a3.475 3.475 0 0 1 3.474-3.474h71.028a3.475 3.475 0 0 1 3.474 3.474v16.983a3.479 3.479 0 0 1-3.474 3.473z" fill="#007FFF"/><path d="M167.392 48.313a7.72 7.72 0 1 0 .001-15.44 7.72 7.72 0 0 0-.001 15.44z" fill="#007FFF"/><path d="M167.392 45.295a4.702 4.702 0 1 0 0-9.403 4.702 4.702 0 0 0 0 9.403z" fill="#fff"/></g></g><defs><clipPath id="a"><path fill="#fff" d="M0 0h250v244H0z"/></clipPath></defs></svg>