<svg width="83" height="28" fill="none" xmlns="http://www.w3.org/2000/svg"><rect width="28" height="28" rx="8" fill="#007FFF"/><path d="m7 14 4.661 4.5L21 9.5" stroke="#fff" stroke-width="2.5" stroke-linecap="round" stroke-linejoin="round"/><path d="M47.79 7v2.08h-4.46V21h-2.08V9.08H36.8V7h10.99zM56.054 11h2.08v10h-2.09l-.08-1.45c-.293.513-.69.927-1.19 1.24-.5.313-1.09.47-1.77.47a5.262 5.262 0 0 1-2.07-.41 5.468 5.468 0 0 1-1.71-1.16 5.286 5.286 0 0 1-1.55-3.78c0-.713.134-1.383.4-2.01a5.145 5.145 0 0 1 1.11-1.66 5.208 5.208 0 0 1 1.64-1.11 4.972 4.972 0 0 1 2.01-.41c.727 0 1.367.167 1.92.5.56.327 1.024.747 1.39 1.26l-.09-1.48zm-3.1 8.25c.587 0 1.1-.143 1.54-.43.44-.293.78-.687 1.02-1.18.247-.493.37-1.04.37-1.64 0-.607-.123-1.157-.37-1.65a2.928 2.928 0 0 0-1.03-1.17c-.433-.293-.943-.44-1.53-.44-.58 0-1.11.147-1.59.44a3.264 3.264 0 0 0-1.56 2.82c0 .607.144 1.157.43 1.65.294.487.677.877 1.15 1.17.48.287 1.004.43 1.57.43zM63.13 21.19a5.561 5.561 0 0 1-1.54-.32c-.5-.18-.94-.423-1.32-.73a3.036 3.036 0 0 1-.84-1.1l1.77-.76c.086.18.236.357.45.53.22.173.476.317.77.43.293.107.6.16.92.16.313 0 .603-.043.87-.13.273-.093.496-.233.67-.42a.95.95 0 0 0 .26-.67c0-.293-.1-.52-.3-.68a1.944 1.944 0 0 0-.73-.38c-.294-.087-.587-.17-.88-.25a8.918 8.918 0 0 1-1.8-.6c-.54-.26-.97-.59-1.29-.99-.32-.407-.48-.903-.48-1.49 0-.64.173-1.193.52-1.66.346-.473.8-.837 1.36-1.09a4.385 4.385 0 0 1 1.81-.38c.8 0 1.533.17 2.2.51.666.34 1.176.807 1.53 1.4l-1.65.98c-.1-.2-.25-.38-.45-.54-.2-.16-.427-.287-.68-.38a2.463 2.463 0 0 0-.79-.17 2.758 2.758 0 0 0-.95.12 1.477 1.477 0 0 0-.69.42c-.174.193-.26.44-.26.74 0 .293.103.513.31.66.206.14.466.253.78.34.32.087.646.183.98.29.593.187 1.15.417 1.67.69.52.267.94.597 1.26.99.32.393.473.873.46 1.44 0 .627-.19 1.177-.57 1.65-.374.473-.86.833-1.46 1.08a4.29 4.29 0 0 1-1.91.31zM77.332 21h-2.4l-2.46-4.24-1.61 1.92V21h-2.08V6h2.08v9.45l3.72-4.45h2.72l-3.41 4.07 3.44 5.93zM78.919 11h2.08v10h-2.08V11zm1.06-1.45c-.32 0-.587-.103-.8-.31a1.04 1.04 0 0 1-.32-.78c0-.307.107-.563.32-.77.213-.213.477-.32.79-.32.306 0 .567.107.78.32.213.207.32.463.32.77 0 .313-.107.573-.32.78-.207.207-.463.31-.77.31z" fill="#3F3D56"/></svg>